<?xml version="1.0" encoding="UTF-8"?>
<!DOCTYPE svg PUBLIC "-//W3C//DTD SVG 1.1//EN" "http://www.w3.org/Graphics/SVG/1.1/DTD/svg11.dtd">
<!-- Creator: CorelDRAW 2017 -->
<svg xmlns="http://www.w3.org/2000/svg" xml:space="preserve" width="210mm" height="297mm" version="1.1" style="shape-rendering:geometricPrecision; text-rendering:geometricPrecision; image-rendering:optimizeQuality; fill-rule:evenodd; clip-rule:evenodd"
viewBox="0 0 21000 29700"
 xmlns:xlink="http://www.w3.org/1999/xlink">
 <defs>
  <style type="text/css">
   <![CDATA[
    .fil0 {fill:black}
   ]]>
  </style>
 </defs>
 <g id="Слой_x0020_1">
  <metadata id="CorelCorpID_0Corel-Layer"/>
  <g id="_897238848">
   <path class="fil0" d="M9528 9331l492 0c64,0 116,52 116,116l0 460 0 16 0 310c0,230 -188,418 -418,418l-190 0 0 -246 122 0c133,0 241,-108 241,-241l0 -124 -362 0c-64,0 -116,-52 -116,-116l0 -476c0,-64 52,-116 116,-116z"/>
   <path class="fil0" d="M10367 9331l492 0c64,0 116,52 116,116l0 460 0 16 0 310c0,230 -188,418 -418,418l-190 0 0 -246 122 0c133,0 241,-108 241,-241l0 -124 -362 0c-64,0 -116,-52 -116,-116l0 -476c0,-64 52,-116 116,-116z"/>
  </g>
 </g>
</svg>
